<svg xmlns="http://www.w3.org/2000/svg" width="64" height="64" id="letter-z"><path d="M47.252 44.367H31.324l18.921-27.72a3.989 3.989 0 0 0 .696-2.255v-3.285c0-2.206-1.794-4-4-4H18.732c-2.206 0-4 1.794-4 4v4.525c0 2.206 1.794 4 4 4h13.749l-19.034 27.84a3.99 3.99 0 0 0-.699 2.259v3.162c0 2.206 1.794 4 4 4h30.504c2.206 0 4-1.794 4-4v-4.525a4.004 4.004 0 0 0-4-4.001zm1 8.526a1 1 0 0 1-1 1H16.748a1 1 0 0 1-1-1V49.73c0-.202.061-.396.176-.564l20.638-30.187a1.499 1.499 0 0 0-1.237-2.347H18.732a1 1 0 0 1-1-1v-4.525a1 1 0 0 1 1-1h28.209a1 1 0 0 1 1 1v3.285a.996.996 0 0 1-.175.563L27.245 45.021a1.494 1.494 0 0 0-.087 1.546c.26.493.769.8 1.326.8v-.5h18.768v.5a1 1 0 0 1 1 1v4.526z"></path></svg>